HIERARCHY
ROOT hip
{
  OFFSET 0 0 0
  CHANNELS 6 Xposition Yposition Zposition Zrotation Yrotation Xrotation
  JOINT abdomen
  {
    OFFSET 0 20.6881 -0.73152
    CHANNELS 3 Zrotation Xrotation Yrotation
    JOINT chest
    {
      OFFSET 0 11.7043 -0.48768
      CHANNELS 3 Zrotation Xrotation Yrotation
      JOINT neck
      {
        OFFSET 0 22.1894 -2.19456
        CHANNELS 3 Zrotation Xrotation Yrotation
        JOINT head
        {
          OFFSET -0.24384 7.07133 1.2192
          CHANNELS 3 Zrotation Xrotation Yrotation
          JOINT leftEye
          {
            OFFSET 4.14528 8.04674 8.04672
            CHANNELS 3 Zrotation Xrotation Yrotation
            End Site
            {
              OFFSET 1 0 0
            }
          }
          JOINT rightEye
          {
            OFFSET -3.6576 8.04674 8.04672
            CHANNELS 3 Zrotation Xrotation Yrotation
            End Site
            {
              OFFSET 1 0 0
            }
          }
        }
      }
      JOINT rCollar
      {
        OFFSET -2.68224 19.2634 -4.8768
        CHANNELS 3 Zrotation Xrotation Yrotation
        JOINT rShldr
        {
          OFFSET -8.77824 -1.95073 1.46304
          CHANNELS 3 Zrotation Xrotation Yrotation
          JOINT rForeArm
          {
            OFFSET -28.1742 -1.7115 0.48768
            CHANNELS 3 Zrotation Xrotation Yrotation
            JOINT rHand
            {
              OFFSET -22.5879 0.773209 7.07136
              CHANNELS 3 Zrotation Xrotation Yrotation
              JOINT rThumb1
              {
                OFFSET -1.2192 -0.487915 3.41376
                CHANNELS 3 Zrotation Xrotation Yrotation
                JOINT rThumb2
                {
                  OFFSET -3.37035 -0.52449 3.41376
                  CHANNELS 3 Zrotation Xrotation Yrotation
                  End Site
                  {
                    OFFSET -1.78271 -1.18214 1.43049
                  }
                }
              }
              JOINT rIndex1
              {
                OFFSET -7.75947 0.938293 5.60832
                CHANNELS 3 Zrotation Xrotation Yrotation
                JOINT rIndex2
                {
                  OFFSET -2.54057 -0.884171 1.56538
                  CHANNELS 3 Zrotation Xrotation Yrotation
                  End Site
                  {
                    OFFSET -1.62519 -0.234802 1.16502
                  }
                }
              }
              JOINT rMid1
              {
                OFFSET -8.24714 1.18213 3.41376
                CHANNELS 3 Zrotation Xrotation Yrotation
                JOINT rMid2
                {
                  OFFSET -3.10165 -0.590103 1.0647
                  CHANNELS 3 Zrotation Xrotation Yrotation
                  End Site
                  {
                    OFFSET -2.48547 -0.328903 0.83742
                  }
                }
              }
              JOINT rRing1
              {
                OFFSET -8.82822 0.546677 1.51678
                CHANNELS 3 Zrotation Xrotation Yrotation
                JOINT rRing2
                {
                  OFFSET -2.60934 -0.819778 -0.0198488
                  CHANNELS 3 Zrotation Xrotation Yrotation
                  End Site
                  {
                    OFFSET -2.33842 -0.294052 0.168128
                  }
                }
              }
              JOINT rPinky1
              {
                OFFSET -8.27202 -0.0477905 -0.4584
                CHANNELS 3 Zrotation Xrotation Yrotation
                JOINT rPinky2
                {
                  OFFSET -1.82734 -0.647385 -0.700984
                  CHANNELS 3 Zrotation Xrotation Yrotation
                  End Site
                  {
                    OFFSET -1.69225 -0.51767 -0.607171
                  }
                }
              }
            }
          }
        }
      }
      JOINT lCollar
      {
        OFFSET 2.68224 19.2634 -4.8768
        CHANNELS 3 Zrotation Xrotation Yrotation
        JOINT lShldr
        {
          OFFSET 8.77824 -1.95073 1.46304
          CHANNELS 3 Zrotation Xrotation Yrotation
          JOINT lForeArm
          {
            OFFSET 28.1742 -1.7115 0.48768
            CHANNELS 3 Zrotation Xrotation Yrotation
            JOINT lHand
            {
              OFFSET 22.5879 0.773209 7.07136
              CHANNELS 3 Zrotation Xrotation Yrotation
              JOINT lThumb1
              {
                OFFSET 1.2192 -0.487915 3.41376
                CHANNELS 3 Zrotation Xrotation Yrotation
                JOINT lThumb2
                {
                  OFFSET 3.37035 -0.52449 3.41376
                  CHANNELS 3 Zrotation Xrotation Yrotation
                  End Site
                  {
                    OFFSET 1.78271 -1.18214 1.43049
                  }
                }
              }
              JOINT lIndex1
              {
                OFFSET 7.75947 0.938293 5.60832
                CHANNELS 3 Zrotation Xrotation Yrotation
                JOINT lIndex2
                {
                  OFFSET 2.54057 -0.884171 1.56538
                  CHANNELS 3 Zrotation Xrotation Yrotation
                  End Site
                  {
                    OFFSET 1.62519 -0.234802 1.16502
                  }
                }
              }
              JOINT lMid1
              {
                OFFSET 8.24714 1.18213 3.41376
                CHANNELS 3 Zrotation Xrotation Yrotation
                JOINT lMid2
                {
                  OFFSET 3.10165 -0.590103 1.0647
                  CHANNELS 3 Zrotation Xrotation Yrotation
                  End Site
                  {
                    OFFSET 2.48547 -0.328903 0.83742
                  }
                }
              }
              JOINT lRing1
              {
                OFFSET 8.82822 0.546677 1.51678
                CHANNELS 3 Zrotation Xrotation Yrotation
                JOINT lRing2
                {
                  OFFSET 2.60934 -0.819778 -0.0198488
                  CHANNELS 3 Zrotation Xrotation Yrotation
                  End Site
                  {
                    OFFSET 2.33842 -0.294052 0.168128
                  }
                }
              }
              JOINT lPinky1
              {
                OFFSET 8.27202 -0.0477905 -0.4584
                CHANNELS 3 Zrotation Xrotation Yrotation
                JOINT lPinky2
                {
                  OFFSET 1.82734 -0.647385 -0.700984
                  CHANNELS 3 Zrotation Xrotation Yrotation
                  End Site
                  {
                    OFFSET 1.69225 -0.51767 -0.607171
                  }
                }
              }
            }
          }
        }
      }
    }
  }
  JOINT rButtock
  {
    OFFSET -8.77824 4.35084 1.2192
    CHANNELS 3 Zrotation Xrotation Yrotation
    JOINT rThigh
    {
      OFFSET 0 -1.70687 -2.19456
      CHANNELS 3 Zrotation Xrotation Yrotation
      JOINT rShin
      {
        OFFSET 0 -36.8199 0.73152
        CHANNELS 3 Zrotation Xrotation Yrotation
        JOINT rFoot
        {
          OFFSET 0.73152 -45.1104 -5.12064
          CHANNELS 3 Zrotation Xrotation Yrotation
          End Site
          {
            OFFSET -1.1221 -3.69964 12.103
          }
        }
      }
    }
  }
  JOINT lButtock
  {
    OFFSET 8.77824 4.35084 1.2192
    CHANNELS 3 Zrotation Xrotation Yrotation
    JOINT lThigh
    {
      OFFSET 0 -1.70687 -2.19456
      CHANNELS 3 Zrotation Xrotation Yrotation
      JOINT lShin
      {
        OFFSET 0 -36.8199 0.73152
        CHANNELS 3 Zrotation Xrotation Yrotation
        JOINT lFoot
        {
          OFFSET -0.73152 -45.1104 -5.12064
          CHANNELS 3 Zrotation Xrotation Yrotation
          End Site
          {
            OFFSET 1.1221 -3.69964 12.103
          }
        }
      }
    }
  }
}
MOTION
Frames:	4
Frame Time:	0.00833333
62.4743 85.0966 -23.6528 0.0 0.0 0.0 0.283894 -0.00291392 0.00816073 0.0784592 -0.004733 0.0135944 2.16726e-15 7.95139e-16 -5.59082e-17 6.5102e-15 9.54166e-15 -1.7549e-16 -0.0 0.0 0.0 -0.0 0.0 0.0 1.09207e-15 7.76503e-18 0.0 2.46272e-14 3.72721e-17 7.95139e-16 3.93445e-13 -1.13506e-13 -5.08889e-14 4.46029e-12 1.31546e-13 -5.40694e-14 1.05272e-11 3.67598e-14 -2.22639e-13 1.81677e-11 5.725e-14 -4.07906e-13 1.05324e-11 3.73715e-14 -2.35361e-13 7.73091 5.47488 0.417314 1.0526e-11 3.6477e-14 -2.29e-13 2.90554 0.965183 0.102902 1.05343e-11 3.67752e-14 -2.32976e-13 10.2786 0.731801 0.0259123 1.05284e-11 3.73715e-14 -2.35361e-13 2.22167 -0.733487 -0.20892 1.09463e-15 7.95915e-18 -9.93923e-17 2.03114e-14 3.72721e-17 -1.59028e-15 3.87829e-13 1.20066e-13 6.36111e-15 4.46769e-12 -9.92929e-14 -1.20861e-13 1.05348e-11 4.1698e-14 -2.44903e-13 1.82019e-11 6.67917e-14 -4.10292e-13 1.05316e-11 4.21423e-14 -2.38542e-13 -7.73091 5.47488 -0.417314 1.05354e-11 4.16454e-14 -2.41722e-13 -2.90554 0.965183 -0.102902 1.0525e-11 4.23411e-14 -2.34566e-13 -10.2786 0.731801 -0.0259123 1.05368e-11 4.33351e-14 -2.3218e-13 -2.22167 -0.733487 0.20892 -2.03217e-16 0.0 -3.88251e-19 0.668906 -3.85853 -0.0572478 -0.00341779 1.43794 -0.0274396 -0.455248 2.42105 0.100329 2.03217e-16 0.0 3.88251e-19 -0.234831 -2.72419 0.0299389 0.00662652 -0.616662 0.0579732 0.449446 3.34127 -0.117942
69.1871 84.0772 -29.0807 -12.8621 85.8068 -10.6819 0.735936 -0.869666 0.268316 0.691482 -0.690499 0.129412 -0.792669 -0.631623 -0.718197 1.60997 -1.62314 -1.05633 -0.0 0.0 0.0 -0.0 0.0 0.0 4.54227e-14 -2.38096e-12 6.14621e-14 21.0847 4.78972 -0.650701 -2.65229 -1.0018 4.33864 0.00602919 1.76742 0.247998 -2.93788e-10 -2.80163e-10 -7.12436e-10 -5.11204e-10 -4.87323e-10 -1.22938e-09 -2.93782e-10 -2.80165e-10 -7.12448e-10 7.73091 5.47488 0.417314 -2.93788e-10 -2.80166e-10 -7.12443e-10 2.90554 0.965183 0.102902 -2.9378e-10 -2.80165e-10 -7.12446e-10 10.2786 0.731801 0.0259123 -2.93789e-10 -2.80164e-10 -7.12447e-10 2.22167 -0.733487 -0.20892 4.54171e-14 -2.38096e-12 6.13196e-14 -22.3935 8.30301 -0.241176 4.0064 -1.77971 -6.30134 -0.0990794 -6.99255 0.956516 -4.1359e-10 1.97099e-10 8.50964e-10 -7.29074e-10 3.39154e-10 1.4627e-09 -4.13594e-10 1.97099e-10 8.50968e-10 -7.73091 5.47488 -0.417314 -4.13591e-10 1.97098e-10 8.50965e-10 -2.90554 0.965183 -0.102902 -4.13599e-10 1.97099e-10 8.50973e-10 -10.2786 0.731801 -0.0259123 -4.13587e-10 1.971e-10 8.50976e-10 -2.22167 -0.733487 0.20892 -2.03217e-16 0.0 -3.88251e-19 1.84012 -3.05713 5.00201 0.00230933 4.22303 0.0354024 -0.895256 -0.231364 -8.92013 2.03217e-16 0.0 3.88251e-19 0.066086 -4.38417 -5.64795 -0.0189378 5.58444 -0.109438 1.24001 -1.53999 6.05389
69.0818 84.1667 -29.052 -14.1372 85.7196 -11.9804 1.22528 -1.79274 0.534232 1.34796 -1.41588 0.249696 -1.65883 -1.28291 -1.4821 3.25855 -3.35084 -2.18032 -0.0 0.0 0.0 -0.0 0.0 0.0 9.44387e-14 -4.97632e-12 1.27505e-13 43.4896 9.79491 -1.36655 -5.26191 -2.02479 8.88224 -0.00456994 3.68138 0.517388 -6.22245e-10 -5.76174e-10 -1.50972e-09 -1.08272e-09 -1.00231e-09 -2.6052e-09 -6.22238e-10 -5.76178e-10 -1.50973e-09 7.73091 5.47488 0.417314 -6.22244e-10 -5.76178e-10 -1.50973e-09 2.90554 0.965183 0.102902 -6.22235e-10 -5.76178e-10 -1.50973e-09 10.2786 0.731801 0.0259123 -6.22248e-10 -5.76175e-10 -1.50973e-09 2.22167 -0.733487 -0.20892 9.44254e-14 -4.97632e-12 1.27315e-13 -45.9919 17.0524 -0.502205 7.80707 -3.5811 -12.964 0.0573988 -14.3673 2.01473 -8.72852e-10 4.08434e-10 1.78583e-09 -1.53842e-09 7.02795e-10 3.0697e-09 -8.72856e-10 4.08434e-10 1.78583e-09 -7.73091 5.47488 -0.417314 -8.72854e-10 4.08434e-10 1.78583e-09 -2.90554 0.965183 -0.102902 -8.7286e-10 4.08434e-10 1.78584e-09 -10.2786 0.731801 -0.0259123 -8.72848e-10 4.08436e-10 1.78584e-09 -2.22167 -0.733487 0.20892 -2.03217e-16 0.0 -3.88251e-19 2.91557 -2.17911 10.3084 0.00157586 7.13745 0.102038 -2.24939 -2.89981 -18.4543 2.03217e-16 0.0 3.88251e-19 0.0219143 -6.06576 -11.689 -0.00594075 12.1643 -0.292785 3.22078 -6.57472 12.6553
68.9781 84.2628 -29.0285 -14.6566 85.6 -12.4914 1.66365 -2.60295 0.789349 1.92585 -2.062 0.361253 -2.42552 -1.89368 -2.15564 4.64992 -4.86279 -3.17917 -0.0 0.0 0.0 -0.0 0.0 0.0 1.34084e-13 -7.1429e-12 1.84386e-13 63.5895 14.3616 -2.00806 -7.50555 -2.93657 13.0313 -0.0279793 5.30186 0.746834 -9.02419e-10 -8.40564e-10 -2.13686e-09 -1.56995e-09 -1.46208e-09 -3.68733e-09 -9.02411e-10 -8.4057e-10 -2.13687e-09 7.73091 5.47488 0.417314 -9.02416e-10 -8.4057e-10 -2.13687e-09 2.90554 0.965183 0.102902 -9.02408e-10 -8.40569e-10 -2.13687e-09 10.2786 0.731801 0.0259123 -9.02423e-10 -8.40565e-10 -2.13687e-09 2.22167 -0.733487 -0.20892 1.34062e-13 -7.1429e-12 1.84158e-13 -66.9527 24.9072 -0.789365 10.8646 -5.08134 -18.9723 0.445021 -20.9534 3.05007 -1.26184e-09 5.91213e-10 2.55338e-09 -2.22363e-09 1.01733e-09 4.38893e-09 -1.26184e-09 5.91212e-10 2.55338e-09 -7.73091 5.47488 -0.417314 -1.26184e-09 5.91212e-10 2.55338e-09 -2.90554 0.965183 -0.102902 -1.26185e-09 5.91212e-10 2.55339e-09 -10.2786 0.731801 -0.0259123 -1.26184e-09 5.91215e-10 2.55339e-09 -2.22167 -0.733487 0.20892 -2.03217e-16 0.0 -3.88251e-19 3.76055 -1.43788 15.1037 -0.0047903 9.79318 0.163158 -4.1949 -4.9405 -27.0694 2.03217e-16 0.0 3.88251e-19 -0.307754 -7.42847 -17.1018 0.0429574 17.9861 -0.465441 5.96151 -10.7428 18.7307
